<?xml version="1.0" encoding="UTF-8" standalone="no"?>
<svg
   viewBox="0 0 288.85794 288.85794"
   version="1.1"
   id="svg46"
   sodipodi:docname="nordicfc.svg"
   width="288.85794"
   height="288.85794"
   inkscape:version="1.4.2 (ebf0e940d0, 2025-05-08)"
   inkscape:export-filename="nordicfc.png"
   inkscape:export-xdpi="96"
   inkscape:export-ydpi="96"
   xmlns:inkscape="http://www.inkscape.org/namespaces/inkscape"
   xmlns:sodipodi="http://sodipodi.sourceforge.net/DTD/sodipodi-0.dtd"
   xmlns="http://www.w3.org/2000/svg"
   xmlns:svg="http://www.w3.org/2000/svg">
  <sodipodi:namedview
     id="namedview46"
     pagecolor="#ffffff"
     bordercolor="#999999"
     borderopacity="1"
     inkscape:showpageshadow="2"
     inkscape:pageopacity="0"
     inkscape:pagecheckerboard="0"
     inkscape:deskcolor="#d1d1d1"
     inkscape:zoom="1.0276349"
     inkscape:cx="-2.9193248"
     inkscape:cy="162.50908"
     inkscape:window-width="1920"
     inkscape:window-height="1130"
     inkscape:window-x="912"
     inkscape:window-y="1080"
     inkscape:window-maximized="1"
     inkscape:current-layer="svg46"
     inkscape:export-bgcolor="#ffffff00" />
  <defs
     id="defs3">
    <linearGradient
       id="arctic-landscape-aurora-borealis-gleam"
       x1="0.5"
       x2="0.5"
       y1="0"
       y2="1">
      <stop
         offset="0%"
         stop-color="#8fbcbb"
         id="stop1">
        <animate
           attributeName="stop-color"
           dur="4s"
           repeatCount="indefinite"
           values="#8fbcbb; #88c0d0; #8fbcbb" />
      </stop>
      <stop
         offset="50%"
         stop-color="#88c0d0"
         id="stop2">
        <animate
           attributeName="stop-color"
           dur="4s"
           repeatCount="indefinite"
           values="#88c0d0; #81a1c1; #88c0d0" />
      </stop>
      <stop
         offset="100%"
         stop-color="#81a1c1"
         id="stop3">
        <animate
           attributeName="stop-color"
           dur="4s"
           repeatCount="indefinite"
           values="#81a1c1; #5e81ac; #81a1c1" />
      </stop>
    </linearGradient>
  </defs>
  <g
     id="g3"
     transform="rotate(-45.021173,193.89041,124.22326)">
    <rect
       style="fill:#8fbcbb;fill-opacity:1;stroke:none;stroke-width:3.30574;stroke-linecap:round;stroke-miterlimit:20.3;stroke-opacity:0.290067;paint-order:markers fill stroke"
       id="rect1"
       width="17.262268"
       height="529.54828"
       x="67.451477"
       y="-164.04401"
       transform="matrix(0.99652528,-0.08329082,0,1,0,0)" />
    <rect
       style="fill:#81a1c1;fill-opacity:1;stroke:none;stroke-width:3.30574;stroke-linecap:round;stroke-miterlimit:20.3;stroke-opacity:0.290067;paint-order:markers fill stroke"
       id="rect1-6"
       width="17.262268"
       height="529.54828"
       x="101.64399"
       y="-165.24684"
       transform="matrix(0.99652528,-0.08329082,0,1,0,0)" />
    <rect
       style="fill:#88c0d0;fill-opacity:1;stroke:none;stroke-width:3.30574;stroke-linecap:round;stroke-miterlimit:20.3;stroke-opacity:0.290067;paint-order:markers fill stroke"
       id="rect1-8"
       width="17.262268"
       height="529.54828"
       x="84.415329"
       y="-166.44438"
       transform="matrix(0.99652528,-0.08329082,0,1,0,0)" />
    <rect
       style="fill:#5e81ac;fill-opacity:1;stroke:none;stroke-width:3.30574;stroke-linecap:round;stroke-miterlimit:20.3;stroke-opacity:0.290067;paint-order:markers fill stroke"
       id="rect1-9"
       width="17.262268"
       height="529.54828"
       x="118.86481"
       y="-163.37466"
       transform="matrix(0.99652528,-0.08329082,0,1,0,0)" />
    <rect
       style="fill:#bf616a;fill-opacity:1;stroke:none;stroke-width:3.30574;stroke-linecap:round;stroke-miterlimit:20.3;stroke-opacity:0.290067;paint-order:markers fill stroke"
       id="rect1-0"
       width="17.262268"
       height="529.54828"
       x="135.93547"
       y="-160.79283"
       transform="matrix(0.99652528,-0.08329082,0,1,0,0)" />
    <rect
       style="fill:#d08770;fill-opacity:1;stroke:none;stroke-width:3.30574;stroke-linecap:round;stroke-miterlimit:20.3;stroke-opacity:0.290067;paint-order:markers fill stroke"
       id="rect1-3"
       width="17.262268"
       height="529.54828"
       x="152.96249"
       y="-157.92358"
       transform="matrix(0.99652528,-0.08329082,0,1,0,0)" />
    <rect
       style="fill:#ebcb8b;fill-opacity:1;stroke:none;stroke-width:3.30574;stroke-linecap:round;stroke-miterlimit:20.3;stroke-opacity:0.290067;paint-order:markers fill stroke"
       id="rect1-5"
       width="17.262268"
       height="529.54828"
       x="170.09764"
       y="-160.28859"
       transform="matrix(0.99652528,-0.08329082,0,1,0,0)" />
    <rect
       style="fill:#a3be8c;fill-opacity:1;stroke:none;stroke-width:3.30574;stroke-linecap:round;stroke-miterlimit:20.3;stroke-opacity:0.290067;paint-order:markers fill stroke"
       id="rect1-2"
       width="17.262268"
       height="529.54828"
       x="187.23279"
       y="-158.76823"
       transform="matrix(0.99652528,-0.08329082,0,1,0,0)" />
    <rect
       style="fill:#b48ead;fill-opacity:1;stroke:none;stroke-width:3.30574;stroke-linecap:round;stroke-miterlimit:20.3;stroke-opacity:0.290067;paint-order:markers fill stroke"
       id="rect1-89"
       width="17.262268"
       height="529.54828"
       x="204.4518"
       y="-163.32135"
       transform="matrix(0.99652528,-0.08329082,0,1,0,0)" />
    <rect
       style="fill:#e5e9f0;fill-opacity:1;stroke:none;stroke-width:3.3;stroke-linecap:round;stroke-miterlimit:20.3;stroke-opacity:0.290067;paint-order:markers fill stroke"
       id="rect2"
       width="174.77522"
       height="534.64703"
       x="-107.34226"
       y="-163.76576" />
    <rect
       style="fill:#2e3440;fill-opacity:1;stroke:none;stroke-width:3.3;stroke-linecap:round;stroke-miterlimit:20.3;stroke-opacity:0.290067;paint-order:markers fill stroke"
       id="rect3"
       width="166.51813"
       height="535.33514"
       x="220.87735"
       y="-174.08714" />
  </g>
  <g
     id="g1"
     transform="matrix(0.17742458,0,0,0.17742458,209.28228,7.3393625)"
     style="display:none;stroke-width:0.39923">
    <g
       id="g2"
       style="stroke:none;stroke-width:0.39923">
      <path
         d="m 400,80 -80,80 H 160 v 60 h 80 v 80 h -80 v 100 l -80,80 h 81.0076 c 6.0652,0 11.4378,-3.9054 13.3118,-9.6738 l 14.4798,-44.5656 c 1.384,-4.2618 4.7298,-7.5966 8.9916,-8.9814 l 11.1312,-3.6172 c 4.262,-1.386 8.9314,-0.65 12.5572,1.984 l 37.8994,27.5434 c 4.9066,3.5646 11.5574,3.5646 16.464,0 l 33.972,-24.691 c 4.9072,-3.5648 6.9592,-9.8788 5.085,-15.6474 l -14.4798,-44.5658 c -1.386,-4.262 -0.64,-8.9314 1.994,-12.5572 l 6.8834,-9.4672 c 2.6338,-3.6254 6.8358,-5.777 11.317,-5.7774 l 46.86,0.0102 c 6.0656,2e-4 11.4378,-3.9154 13.3118,-9.684 l 12.9812,-39.9354 c 1.874,-5.7684 -0.18,-12.093 -5.085,-15.658 L 350.7724,237.173 c -3.6256,-2.6342 -5.767,-6.8356 -5.767,-11.3172 V 214.146 c 4e-4,-4.4814 2.1412,-8.6936 5.767,-11.3274 l 43.4598,-31.5742 C 397.8584,168.6106 400,164.3988 400,159.9174 Z"
         style="display:inline;fill:#5e81ac;fill-opacity:1;fill-rule:evenodd;stroke:none;stroke-width:1.05623;stroke-linecap:square"
         id="path8-4-4" />
      <path
         id="path7-7-2"
         style="display:inline;fill:#b48ead;fill-opacity:1;fill-rule:evenodd;stroke:none;stroke-width:1.05623;stroke-linecap:square"
         d="m 320,0 -80,80 h 80 v 80 L 400,80 V 0 Z M 80,320 0,400 v 80 h 80 l 80,-80 H 80 Z" />
      <path
         d="M 80,0 0,80 V 400 L 80,320 V 80 H 240 L 320,0 Z"
         style="fill:#bf616a;fill-opacity:1;fill-rule:evenodd;stroke:none;stroke-width:1.05623;stroke-linecap:square"
         id="path3-1-7" />
      <path
         d="m 80,400 h 80 V 300 h 80 V 220 H 160 V 160 H 320 V 80 H 80 Z"
         style="display:none;fill:#ffffff;fill-opacity:1;fill-rule:evenodd;stroke:none;stroke-width:1.05623;stroke-linecap:square"
         id="path9-4-0" />
    </g>
  </g>
</svg>
