<?xml version="1.0" encoding="UTF-8" standalone="no"?>
<svg
   viewBox="0 0 198.71797 198.71797"
   version="1.1"
   id="svg46"
   sodipodi:docname="nordicfc.svg"
   width="198.71797"
   height="198.71797"
   inkscape:version="1.4.2 (ebf0e940d0, 2025-05-08)"
   xmlns:inkscape="http://www.inkscape.org/namespaces/inkscape"
   xmlns:sodipodi="http://sodipodi.sourceforge.net/DTD/sodipodi-0.dtd"
   xmlns="http://www.w3.org/2000/svg"
   xmlns:svg="http://www.w3.org/2000/svg">
  <sodipodi:namedview
     id="namedview46"
     pagecolor="#ffffff"
     bordercolor="#999999"
     borderopacity="1"
     inkscape:showpageshadow="2"
     inkscape:pageopacity="0"
     inkscape:pagecheckerboard="0"
     inkscape:deskcolor="#d1d1d1"
     inkscape:zoom="1.4532952"
     inkscape:cx="-15.482058"
     inkscape:cy="178.21569"
     inkscape:window-width="3840"
     inkscape:window-height="1050"
     inkscape:window-x="0"
     inkscape:window-y="0"
     inkscape:window-maximized="1"
     inkscape:current-layer="svg46"
     inkscape:export-bgcolor="#ffffff00" />
  <defs
     id="defs3">
    <linearGradient
       id="arctic-landscape-aurora-borealis-gleam"
       x1="0.5"
       x2="0.5"
       y1="0"
       y2="1">
      <stop
         offset="0%"
         stop-color="#8fbcbb"
         id="stop1">
        <animate
           attributeName="stop-color"
           dur="4s"
           repeatCount="indefinite"
           values="#8fbcbb; #88c0d0; #8fbcbb" />
      </stop>
      <stop
         offset="50%"
         stop-color="#88c0d0"
         id="stop2">
        <animate
           attributeName="stop-color"
           dur="4s"
           repeatCount="indefinite"
           values="#88c0d0; #81a1c1; #88c0d0" />
      </stop>
      <stop
         offset="100%"
         stop-color="#81a1c1"
         id="stop3">
        <animate
           attributeName="stop-color"
           dur="4s"
           repeatCount="indefinite"
           values="#81a1c1; #5e81ac; #81a1c1" />
      </stop>
    </linearGradient>
  </defs>
  <rect
     style="fill:#ffffff;fill-opacity:1;stroke:#2e3440;stroke-width:3.3;stroke-linecap:round;stroke-miterlimit:20.3;stroke-dasharray:none;stroke-dashoffset:0;stroke-opacity:0.290067;paint-order:markers fill stroke"
     id="rect46"
     width="242.89629"
     height="259.41049"
     x="-20.642744"
     y="-26.147474" />
  <path
     d="m 375.31013,22.657633 v 26.46 c 0,1.12 -1.119,2.03 -2.5,2.03 -1.379,0 -2.5,-0.91 -2.5,-2.03 v -2.12 c 0,-1.13 -1.119,-2.04 -2.5,-2.04 -1.379,0 -2.5,0.91 -2.5,2.04 v 5.181 c 0,1.119 -1.119,2.029 -2.5,2.029 -1.379,0 -2.5,-0.91 -2.5,-2.029 v -10.101 c 0,-1.13 -1.119,-2.04 -2.5,-2.04 -1.379,0 -2.5,0.91 -2.5,2.04 v 9.08 c 0,1.12 -1.119,2.03 -2.5,2.03 -1.379,0 -2.5,-0.91 -2.5,-2.03 v -5.08 c 0,-1.12 -1.119,-2.03 -2.5,-2.03 -1.379,0 -2.5,0.91 -2.5,2.03 v 0.37 c 0,1.13 -1.119,2.04 -2.5,2.04 -1.379,0 -2.5,-0.91 -2.5,-2.04 v -11.19 c 0,-1.121 -1.119,-2.041 -2.5,-2.041 -1.379,0 -2.5,0.92 -2.5,2.041 v 4.569 c 0,1.12 -1.119,2.04 -2.5,2.04 -1.379,0 -2.5,-0.92 -2.5,-2.04 v -3.68 c 0,-1.12 -1.119,-2.03 -2.5,-2.03 -1.379,0 -2.5,0.91 -2.5,2.03 v 4.92 c 0,1.13 -1.119,2.04 -2.5,2.04 -1.379,0 -2.5,-0.91 -2.5,-2.04 v -0.681 c 0,-1.119 -1.119,-2.039 -2.5,-2.039 -1.379,0 -2.5,0.92 -2.5,2.039 v 5.49 c 0,1.12 -1.119,2.041 -2.5,2.041 -1.379,0 -2.5,-0.921 -2.5,-2.041 v -0.74 c 0,-1.119 -1.119,-2.029 -2.5,-2.029 -1.379,0 -2.5,0.91 -2.5,2.029 v 5.511 c 0,1.12 -1.119,2.03 -2.5,2.03 -1.379,0 -2.49,-0.9 -2.5,-2.021 v -6.758 c 0,-1.12 -1.119,-2.03 -2.5,-2.03 -1.379,0 -2.5,0.91 -2.5,2.03 v 8.85 c 0,1.12 -1.119,2.03 -2.5,2.03 -1.379,0 -2.5,-0.91 -2.5,-2.03 v -4.73 c 0,-1.12 -1.119,-2.03 -2.5,-2.03 -1.379,0 -2.5,0.91 -2.5,2.03 v 1.99 c 0,1.119 -1.119,2.029 -2.5,2.029 -1.149,0 -2.119,-0.63 -2.41,-1.49 v -7.849 c 0,-1.13 -1.14,-2.04 -2.549,-2.04 -1.4,0 -2.541,0.91 -2.541,2.04 v 4.641 c 0,1.129 -1.119,2.039 -2.5,2.039 -1.379,0 -2.5,-0.91 -2.5,-2.039 v -0.931 c 0,-1.12 -1.119,-2.03 -2.5,-2.03 -1.379,0 -2.5,0.91 -2.5,2.03 v 9.19 c 0,1.129 -1.119,2.039 -2.5,2.039 -1.379,0 -2.5,-0.91 -2.5,-2.039 v -2.07 c 0,-1.13 -1.119,-2.04 -2.5,-2.04 -1.379,0 -2.5,0.91 -2.5,2.04 v 6.189 c 0,1.131 -1.119,2.041 -2.5,2.041 -1.379,0 -2.5,-0.91 -2.5,-2.041 v -12.219 c -0.01,-1.12 -1.119,-2.03 -2.5,-2.03 -1.379,0 -2.5,0.91 -2.5,2.041 v 6.229 c 0,1.12 -1.119,2.03 -2.5,2.03 -1.379,0 -2.5,-0.91 -2.5,-2.03 v -8.851 c 0,-1.129 -1.119,-2.039 -2.5,-2.039 -1.379,0 -2.5,0.91 -2.5,2.039 v 3.721 c 0,1.119 -1.119,2.029 -2.5,2.029 -1.379,0 -2.5,-0.91 -2.5,-2.029 v -0.391 c -0.01,-1.119 -1.119,-2.029 -2.5,-2.029 -1.379,0 -2.5,0.91 -2.5,2.039 v 2.371 c 0,1.119 -1.119,2.039 -2.5,2.039 -1.379,0 -2.5,-0.92 -2.5,-2.039 v -6.39 c 0,1.12 -1.119,2.03 -2.5,2.03 -1.379,0 -2.5,-0.91 -2.5,-2.03 v -7.07 c 0,-1.119 -1.119,-2.039 -2.5,-2.039 -1.379,0 -2.5,0.92 -2.5,2.039 v 9.06 c 0,1.12 -1.119,2.029 -2.5,2.029 -1.379,0 -2.5,-0.909 -2.5,-2.029 v -6.74 c 0,-1.13 -1.119,-2.039 -2.5,-2.039 -1.379,0 -2.5,0.909 -2.5,2.039 v 1.61 c 0,1.12 -1.119,2.03 -2.5,2.03 -1.379,0 -2.5,-0.91 -2.5,-2.03 v -8.62 c 0,-1.12 -1.119,-2.029 -2.5,-2.029 -1.379,0 -2.5,0.899 -2.5,2.02 v 2.64 c 0,1.13 -1.119,2.04 -2.5,2.04 -1.379,0 -2.5,-0.91 -2.5,-2.04 v -4.409 c 0,-1.121 -1.119,-2.031 -2.5,-2.031 -1.379,0 -2.5,0.91 -2.5,2.031 v 8.528 c 0,1.13 -1.119,2.04 -2.5,2.04 -1.379,0 -2.5,-0.91 -2.5,-2.04 v -4.5 c 0,-1.12 -1.119,-2.029 -2.5,-2.029 -1.379,0 -2.5,0.909 -2.5,2.029 v 12.77 c 0,1.121 -1.119,2.03 -2.5,2.03 -1.379,0 -2.5,-0.909 -2.5,-2.04 v -7.7 c 0,-1.131 -1.119,-2.041 -2.5,-2.041 -1.379,0 -2.5,0.91 -2.5,2.041 v 5.049 c 0,1.121 -1.119,2.031 -2.5,2.031 -1.379,0 -2.5,-0.91 -2.5,-2.041 v -10.299 c 0,-1.13 -1.119,-2.04 -2.5,-2.04 -1.379,0 -2.5,0.91 -2.5,2.04 v 7.56 c 0,1.121 -1.119,2.031 -2.5,2.031 -1.379,0 -2.5,-0.91 -2.5,-2.031 v -1.59 c 0,-1.129 -1.119,-2.039 -2.5,-2.039 -1.379,0 -2.5,0.91 -2.5,2.039 v 3.69 c 0,1.12 -1.119,2.03 -2.5,2.03 -1.379,0 -2.5,-0.91 -2.5,-2.03 v -4.4 c 0,-1.131 -1.119,-2.041 -2.5,-2.041 -1.379,0 -2.5,0.91 -2.5,2.041 v 9.17 c 0,1.119 -1.119,2.029 -2.5,2.029 -1.379,0 -2.5,-0.91 -2.5,-2.029 v -6.041 c 0,-1.129 -1.12,-2.039 -2.5,-2.039 -1.38,0 -2.5,0.91 -2.5,2.039 v 10.84 c 0,1.131 -1.12,2.041 -2.5,2.041 -1.38,0 -2.5,-0.91 -2.5,-2.041 v 0.23 c 0,-1.13 -1.12,-2.039 -2.5,-2.039 -1.38,0 -2.5,0.909 -2.5,2.039 v 1.02 c 0,1.121 -1.12,2.031 -2.5,2.031 -1.38,0 -2.5,-0.91 -2.5,-2.031 v -7.26 c 0,-1.129 -1.12,-2.039 -2.5,-2.039 -1.38,0 -2.5,0.91 -2.5,2.039 v 0.631 c 0,1.129 -1.120003,2.039 -2.500003,2.039 -1.38,0 -2.5,-0.91 -2.5,-2.039 v -8.59 c 0,-1.131 -1.12,-2.041 -2.5,-2.041 -1.38,0 -2.5,0.91 -2.5,2.041 v 3.89 c 0,1.12 -1.12,2.03 -2.5,2.03 -1.38,0 -2.5,-0.91 -2.5,-2.03 v -1.69 c 0,-1.119 -1.12,-2.029 -2.5,-2.029 -1.38,0 -2.5,0.91 -2.5,2.029 v 0.67 c 0,1.12 -1.12,2.041 -2.5,2.041 -1.38,0 -2.5,-0.921 -2.5,-2.041 v -11.19 c 0,-1.131 -1.12,-2.04 -2.5,-2.04 -1.38,0 -2.5,0.909 -2.5,2.04 v 14.25 c 0,1.119 -1.12,2.039 -2.5,2.039 -1.38,0 -2.5,-0.92 -2.5,-2.039 v -6.53 c 0,1.12 -1.12,2.04 -2.5,2.04 -1.38,0 -2.5,-0.92 -2.5,-2.04 v -2.37 c 0,-1.13 -1.12,-2.04 -2.5,-2.04 -1.38,0 -2.5,0.91 -2.5,2.03 v 0.391 c 0,1.119 -1.12,2.029 -2.5,2.029 -1.38,0 -2.5,-0.91 -2.5,-2.029 v -3.73 c 0,-1.12 -1.12,-2.03 -2.5,-2.03 -1.38,0 -2.5,0.91 -2.5,2.03 v 8.859 c 0,1.121 -1.12,2.03 -2.5,2.03 -1.38,0 -2.5,-0.909 -2.5,-2.03 v -6.23 c 0,-1.13 -1.12,-2.04 -2.5,-2.04 -1.38,0 -2.5,0.91 -2.5,2.029 v 12.221 c 0,1.13 -1.12,2.04 -2.5,2.04 -1.38,0 -2.5,-0.91 -2.5,-2.04 v -6.19 c 0,-1.131 -1.12,-2.041 -2.5,-2.041 -1.38,0 -2.5,0.91 -2.5,2.041 v 2.069 c 0,1.13 -1.12,2.04 -2.5,2.04 -1.38,0 -2.5,-0.91 -2.5,-2.04 v -9.19 c 0,-1.119 -1.12,-2.029 -2.5,-2.029 -1.38,0 -2.5,0.91 -2.5,2.029 v 0.931 c 0,1.13 -1.12,2.04 -2.5,2.04 -1.38,0 -2.5,-0.91 -2.5,-2.04 v -4.64 c 0,-1.131 -1.1400004,-2.041 -2.5500004,-2.041 -1.4,0 -2.54,0.91 -2.54,2.041 v 7.85 c -0.3,0.859 -1.26,1.49 -2.41,1.49 -1.38,0 -2.50000004,-0.91 -2.50000004,-2.03 v -1.99 c 0,-1.12 -1.12,-2.03 -2.49999996,-2.03 -1.38,0 -2.5,0.91 -2.5,2.03 v 4.729 c 0,1.121 -1.12,2.031 -2.5,2.031 -1.38,0 -2.5,-0.91 -2.5,-2.031 v -8.85 c 0,-1.119 -1.1199996,-2.029 -2.4999996,-2.029 -1.38,0 -2.5,0.91 -2.5,2.029 v 6.76 c -0.01,1.121 -1.13,2.021 -2.5,2.021 -1.38,0 -2.5,-0.91 -2.5,-2.03 v -5.51 c 0,-1.12 -1.12,-2.029 -2.5,-2.029 -1.38,0 -2.5,0.909 -2.5,2.029 v 0.74 c 0,1.119 -1.12,2.039 -2.5,2.039 -1.38,0 -2.5,-0.92 -2.5,-2.039 v -5.49 c 0,-1.12 -1.12,-2.04 -2.5,-2.04 -1.38,0 -2.5,0.92 -2.5,2.04 v 0.68 c 0,1.131 -1.12,2.041 -2.5,2.041 -1.38,0 -2.5,-0.91 -2.5,-2.041 v -4.921 c 0,-1.119 -1.12,-2.029 -2.5,-2.029 -1.38,0 -2.5,0.91 -2.5,2.029 v 3.68 c 0,1.121 -1.12,2.041 -2.5,2.041 -1.38,0 -2.5,-0.92 -2.5,-2.041 v -4.569 c 0,-1.12 -1.12,-2.04 -2.5,-2.04 -1.38,0 -2.5,0.92 -2.5,2.04 v 11.19 c 0,1.129 -1.12,2.039 -2.5,2.039 -1.38,0 -2.5,-0.91 -2.5,-2.039 v -0.371 c 0,-1.119 -1.12,-2.029 -2.5,-2.029 -1.38,0 -2.5,0.91 -2.5,2.029 v 5.08 c 0,1.121 -1.12,2.03 -2.5,2.03 -1.38,0 -2.5,-0.909 -2.5,-2.03 v -9.08 c 0,-1.129 -1.12,-2.039 -2.5,-2.039 -1.38,0 -2.5,0.91 -2.5,2.039 v 10.101 c 0,1.12 -1.12,2.03 -2.5,2.03 -1.38,0 -2.5,-0.91 -2.5,-2.03 v -5.181 c 0,-1.129 -1.12,-2.039 -2.5,-2.039 -1.38,0 -2.5,0.91 -2.5,2.039 v 2.121 c 0,1.119 -1.12,2.029 -2.5,2.029 -1.38,0 -2.5,-0.91 -2.5,-2.029 v -26.461 c 0,-1.119 1.12,-2.0389998 2.5,-2.0389998 1.38,0 2.5,0.9199998 2.5,2.0389998 v 14.25 c 0,1.131 1.12,2.041 2.5,2.041 1.38,0 2.5,-0.91 2.5,-2.041 v -11.189 c 0,-1.12 1.12,-2.03 2.5,-2.03 1.38,0 2.5,0.91 2.5,2.03 v 0.67 c 0,1.12 1.12,2.04 2.5,2.04 1.38,0 2.5,-0.92 2.5,-2.04 v -1.69 c 0,-1.121 1.12,-2.031 2.5,-2.031 1.38,0 2.5,0.91 2.5,2.031 v 3.899 c 0,1.12 1.12,2.03 2.5,2.03 1.38,0 2.5,-0.91 2.5,-2.03 V 8.5566332 c 0,-1.129 1.12,-2.039 2.5,-2.039 1.38,0 2.5,0.91 2.5,2.039 v 0.631 c 0,1.1299998 1.12,2.0389998 2.5,2.0389998 1.38,0 2.5,-0.909 2.5,-2.0389998 v -7.25 c 0,-1.13100001 1.12,-2.04000001 2.5,-2.04000001 1.38,0 2.5,0.909 2.5,2.04000001 v 1.01 c 0,1.13 1.12,2.04 2.5,2.04 1.38,0 2.5,-0.91 2.5,-2.04 v 0.23 c 0,-1.131 1.12,-2.041 2.5,-2.041 1.38,0 2.5,0.91 2.5,2.041 V 14.027633 c 0,1.12 1.12,2.029 2.5,2.029 1.38,0 2.5,-0.909 2.5,-2.029 V 7.9766332 c 0,-1.119 1.12,-2.029 2.5,-2.029 1.38,0 2.5,0.91 2.5,2.029 v 9.1809998 c 0,1.12 1.12,2.03 2.5,2.03 1.38,0 2.5,-0.91 2.5,-2.03 v -4.41 c 0,-1.12 1.12,-2.03 2.5,-2.03 1.38,0 2.5,0.91 2.5,2.03 v 3.69 c 0,1.13 1.12,2.039 2.5,2.039 1.38,0 2.4999996,-0.909 2.4999996,-2.039 v -1.59 c 0,-1.121 1.12,-2.03 2.5,-2.03 1.38,0 2.5,0.909 2.5,2.03 v 7.56 c 0,1.13 1.12,2.04 2.5,2.04 1.37999996,0 2.49999996,-0.91 2.49999996,-2.04 v -10.3 c 0,-1.12 1.12000004,-2.03 2.50000004,-2.03 1.38,0 2.49,0.899 2.5,2.03 v 5.05 c 0,1.12 1.12,2.03 2.5,2.03 1.38,0 2.5000004,-0.91 2.5000004,-2.03 V 9.4476332 c 0,-1.13 1.12,-2.04 2.5,-2.04 1.38,0 2.5,0.91 2.5,2.03 V 22.207633 c 0,1.12 1.12,2.04 2.5,2.04 1.38,0 2.5,-0.909 2.5,-2.04 v -4.5 c 0,-1.13 1.12,-2.039 2.5,-2.039 1.38,0 2.5,0.909 2.5,2.039 v 8.53 c 0,1.12 1.12,2.03 2.5,2.03 1.38,0 2.5,-0.91 2.5,-2.03 v -4.41 c 0,-1.13 1.12,-2.04 2.5,-2.04 1.38,0 2.5,0.91 2.5,2.04 v 2.64 c 0,1.121 1.12,2.021 2.5,2.021 1.38,0 2.5,-0.91 2.5,-2.03 v -8.621 c 0,-1.121 1.12,-2.031 2.5,-2.031 1.38,0 2.5,0.91 2.5,2.031 v 1.609 c 0,1.13 1.12,2.04 2.5,2.04 1.38,0 2.5,-0.91 2.5,-2.04 v -6.74 c 0,-1.1189998 1.12,-2.0289998 2.5,-2.0289998 1.38,0 2.5,0.91 2.5,2.0289998 v 9.061 c 0,1.13 1.12,2.039 2.5,2.039 1.38,0 2.5,-0.909 2.5,-2.039 v -7.07 c 0,-1.12 1.12,-2.029 2.5,-2.029 1.38,0 2.5,0.909 2.5,2.029 v 6.54 c 0,-1.13 1.12,-2.04 2.5,-2.04 1.38,0 2.5,0.91 2.5,2.04 v 2.12 c 0,1.119 1.12,2.029 2.5,2.029 1.38,0 2.5,-0.91 2.5,-2.029 v -5.18 c 0,-1.131 1.12,-2.041 2.5,-2.041 1.38,0 2.5,0.91 2.5,2.041 v 10.09 c 0,1.13 1.12,2.039 2.5,2.039 1.38,0 2.5,-0.909 2.5,-2.039 v -9.08 c 0,-1.12 1.12,-2.03 2.5,-2.03 1.38,0 2.5,0.91 2.5,2.03 v 5.08 c 0,1.119 1.12,2.029 2.5,2.029 1.38,0 2.5,-0.91 2.5,-2.029 v -0.37 c 0,-1.13 1.12,-2.04 2.5,-2.04 1.38,0 2.500003,0.91 2.500003,2.04 v 11.19 c 0,1.129 1.12,2.039 2.5,2.039 1.38,0 2.5,-0.91 2.5,-2.039 v -4.57 c 0,-1.12 1.12,-2.03 2.5,-2.03 1.38,0 2.5,0.91 2.5,2.03 v 3.68 c 0,1.12 1.12,2.04 2.5,2.04 1.38,0 2.5,-0.92 2.5,-2.04 v -4.92 c 0,-1.13 1.12,-2.04 2.5,-2.04 1.38,0 2.5,0.91 2.5,2.04 v 0.68 c 0,1.12 1.12,2.04 2.5,2.04 1.38,0 2.5,-0.92 2.5,-2.04 v -5.49 c 0,-1.119 1.12,-2.029 2.5,-2.029 1.381,0 2.5,0.91 2.5,2.029 v 0.74 c 0,1.12 1.121,2.03 2.5,2.03 1.381,0 2.5,-0.91 2.5,-2.03 v -5.51 c 0,-1.12 1.121,-2.029 2.5,-2.029 1.381,0 2.49,0.899 2.5,2.02 v 6.76 c 0,1.12 1.121,2.04 2.5,2.04 1.381,0 2.5,-0.92 2.5,-2.04 v -8.851 c 0,-1.121 1.121,-2.03 2.5,-2.03 1.381,0 2.5,0.909 2.5,2.03 v 4.729 c 0,1.12 1.121,2.03 2.5,2.03 1.381,0 2.5,-0.91 2.5,-2.03 v -1.979 c 0,-1.131 1.121,-2.041 2.5,-2.041 1.15,0 2.11,0.631 2.41,1.49 v 7.851 c 0,1.13 1.141,2.04 2.54,2.04 1.41,0 2.55,-0.91 2.55,-2.04 v -4.64 c 0,-1.131 1.121,-2.041 2.5,-2.041 1.381,0 2.5,0.91 2.5,2.041 v 0.93 c 0,1.119 1.121,2.029 2.5,2.029 1.381,0 2.5,-0.91 2.5,-2.029 v -9.19 c 0,-1.13 1.121,-2.04 2.5,-2.04 1.381,0 2.5,0.91 2.5,2.04 v 2.07 c 0,1.13 1.121,2.04 2.5,2.04 1.381,0 2.5,-0.91 2.5,-2.04 V 8.6276332 c 0,-1.13 1.121,-2.039 2.5,-2.039 1.381,0 2.5,0.909 2.5,2.039 V 20.857633 c 0,1.109 1.121,2.02 2.5,2.02 1.381,0 2.5,-0.91 2.5,-2.029 v -6.24 c 0,-1.12 1.121,-2.03 2.5,-2.03 1.381,0 2.5,0.91 2.5,2.03 v 8.859 c 0,1.121 1.121,2.03 2.5,2.03 1.381,0 2.5,-0.909 2.5,-2.03 v -3.73 c 0,-1.12 1.121,-2.03 2.5,-2.03 1.381,0 2.5,0.91 2.5,2.03 v 0.399 c 0,1.11 1.121,2.021 2.5,2.021 1.381,0 2.5,-0.91 2.5,-2.04 v -2.37 c 0,-1.12 1.121,-2.03 2.5,-2.03 1.381,0 2.5,0.91 2.5,2.03 v 6.39 c 0,-1.119 1.121,-2.029 2.5,-2.029 1.381,0 2.5,0.91 2.5,2.029 v 7.07 c 0,1.131 1.121,2.04 2.5,2.04 1.381,0 2.5,-0.909 2.5,-2.04 v -9.06 c 0,-1.12 1.121,-2.03 2.5,-2.03 1.381,0 2.5,0.91 2.5,2.03 v 6.739 c 0,1.131 1.121,2.041 2.5,2.041 1.381,0 2.5,-0.91 2.5,-2.041 v -1.609 c 0,-1.12 1.121,-2.03 2.5,-2.03 1.381,0 2.5,0.91 2.5,2.03 v 8.62 c 0,1.12 1.121,2.03 2.5,2.03 1.381,0 2.49,-0.9 2.5,-2.021 v -2.64 c 0,-1.131 1.121,-2.041 2.5,-2.041 1.381,0 2.5,0.91 2.5,2.041 v 4.41 c 0,1.119 1.121,2.029 2.5,2.029 1.381,0 2.5,-0.91 2.5,-2.029 v -8.53 c 0,-1.13 1.121,-2.04 2.5,-2.04 1.381,0 2.5,0.91 2.5,2.04 v 4.5 c 0,1.13 1.121,2.03 2.5,2.03 1.381,0 2.5,-0.91 2.5,-2.03 v -12.76 c 0,-1.129 1.121,-2.039 2.5,-2.039 1.381,0 2.5,0.91 2.5,2.039 v 7.711 c 0,1.119 1.121,2.029 2.5,2.029 1.381,0 2.5,-0.91 2.5,-2.029 v -5.051 c 0,-1.129 1.121,-2.029 2.5,-2.029 1.381,0 2.5,0.91 2.5,2.029 v 10.301 c 0,1.129 1.121,2.039 2.5,2.039 1.381,0 2.5,-0.91 2.5,-2.039 v -7.56 c 0,-1.119 1.121,-2.029 2.5,-2.029 1.381,0 2.5,0.91 2.5,2.029 v 1.59 c 0,1.131 1.121,2.041 2.5,2.041 1.381,0 2.5,-0.91 2.5,-2.041 v -3.69 c 0,-1.12 1.121,-2.03 2.5,-2.03 1.381,0 2.5,0.91 2.5,2.03 v 4.41 c 0,1.119 1.121,2.029 2.5,2.029 1.381,0 2.5,-0.91 2.5,-2.029 v -9.18 c 0,-1.121 1.121,-2.031 2.5,-2.031 1.381,0 2.5,0.91 2.5,2.031 v 6.049 c 0,1.121 1.121,2.03 2.5,2.03 1.381,0 2.5,-0.909 2.5,-2.03 v -10.849 c 0,-1.13 1.121,-2.04 2.5,-2.04 1.381,0 2.5,0.91 2.5,2.04 v -0.23 c 0,1.131 1.121,2.041 2.5,2.041 1.381,0 2.5,-0.91 2.5,-2.041 v -1.01 c 0,-1.13 1.121,-2.039 2.5,-2.039 1.381,0 2.5,0.909 2.5,2.039 v 7.25 c 0,1.131 1.121,2.041 2.5,2.041 1.381,0 2.5,-0.91 2.5,-2.041 v -0.63 c 0,-1.13 1.121,-2.04 2.5,-2.04 1.381,0 2.5,0.91 2.5,2.04 v 8.6 c 0,1.119 1.121,2.029 2.5,2.029 1.381,0 2.5,-0.91 2.5,-2.029 v -3.9 c 0,-1.12 1.121,-2.029 2.5,-2.029 1.381,0 2.5,0.909 2.5,2.029 v 1.689 c 0,1.121 1.121,2.041 2.5,2.041 1.381,0 2.5,-0.92 2.5,-2.041 v -0.67 c 0,-1.119 1.121,-2.029 2.5,-2.029 1.381,0 2.5,0.91 2.5,2.029 v 11.19 c 0,1.13 1.121,2.04 2.5,2.04 1.381,0 2.5,-0.91 2.5,-2.04 v -14.249 c 0,-1.12 1.121,-2.04 2.5,-2.04 1.381,0 2.5,0.92 2.5,2.04 z"
     class="Fill-nm5ybd-0 jeDmiu"
     opacity="1"
     id="path3"
     style="display:inline;stroke:#2e3440;stroke-width:3.3;stroke-dasharray:none;stroke-opacity:1" />
  <path
     d="m 372.81013,20.622633 c -1.381,0 -2.5,0.911 -2.5,2.035 v 14.253 c 0,1.125 -1.119,2.035 -2.5,2.035 -1.381,0 -2.5,-0.91 -2.5,-2.035 v -11.193 c 0,-1.124 -1.119,-2.035 -2.5,-2.035 -1.381,0 -2.5,0.911 -2.5,2.035 v 0.671 c 0,1.123 -1.119,2.035 -2.5,2.035 -1.381,0 -2.5,-0.912 -2.5,-2.035 v -1.688 c 0,-1.124 -1.119,-2.035 -2.5,-2.035 -1.381,0 -2.5,0.911 -2.5,2.035 v 3.894 c 0,1.123 -1.119,2.034 -2.5,2.034 -1.381,0 -2.5,-0.911 -2.5,-2.034 v -8.6 c 0,-1.123 -1.119,-2.035 -2.5,-2.035 -1.381,0 -2.5,0.912 -2.5,2.035 v 0.637 c 0,1.123 -1.119,2.034 -2.5,2.034 -1.381,0 -2.5,-0.911 -2.5,-2.034 v -7.258 c 0,-1.125 -1.119,-2.035 -2.5,-2.035 -1.381,0 -2.5,0.91 -2.5,2.035 v 1.018 c 0,1.123 -1.119,2.034 -2.5,2.034 -1.381,0 -2.5,-0.911 -2.5,-2.034 v 0.225 c 0,-1.123 -1.119,-2.035 -2.5,-2.035 -1.381,0 -2.5,0.912 -2.5,2.035 v 10.848 c 0,1.125 -1.119,2.035 -2.5,2.035 -1.381,0 -2.5,-0.91 -2.5,-2.035 v -6.041 c 0,-1.124 -1.119,-2.035 -2.5,-2.035 -1.381,0 -2.5,0.911 -2.5,2.035 v 9.172 c 0,1.123 -1.119,2.034 -2.5,2.034 -1.381,0 -2.5,-0.911 -2.5,-2.034 v -4.402 c 0,-1.123 -1.119,-2.035 -2.5,-2.035 -1.381,0 -2.5,0.912 -2.5,2.035 v 3.688 c 0,1.124 -1.119,2.035 -2.5,2.035 -1.381,0 -2.5,-0.911 -2.5,-2.035 v -1.59 c 0,-1.124 -1.119,-2.034 -2.5,-2.034 -1.381,0 -2.5,0.91 -2.5,2.034 v 7.56 c 0,1.125 -1.119,2.035 -2.5,2.035 -1.381,0 -2.5,-0.91 -2.5,-2.035 v -10.305 c 0,-1.123 -1.119,-2.034 -2.5,-2.034 -1.379,0 -2.496,0.909 -2.5,2.03 v 5.051 c 0,1.123 -1.119,2.034 -2.5,2.034 -1.381,0 -2.5,-0.911 -2.5,-2.034 v -7.709 c 0,-1.124 -1.119,-2.035 -2.5,-2.035 -1.381,0 -2.498,0.91 -2.5,2.033 v 12.765 c 0,1.124 -1.119,2.034 -2.5,2.034 -1.381,0 -2.498,-0.909 -2.5,-2.031 v -4.506 c 0,-1.123 -1.119,-2.035 -2.5,-2.035 -1.381,0 -2.5,0.912 -2.5,2.035 v 8.53 c 0,1.124 -1.119,2.035 -2.5,2.035 -1.381,0 -2.5,-0.911 -2.5,-2.035 v -4.409 c 0,-1.124 -1.119,-2.035 -2.5,-2.035 -1.381,0 -2.5,0.911 -2.5,2.035 v 2.639 c -0.008,1.119 -1.123,2.025 -2.5,2.025 -1.381,0 -2.5,-0.912 -2.5,-2.035 v -8.615 c 0,-1.123 -1.119,-2.035 -2.5,-2.035 -1.381,0 -2.5,0.912 -2.5,2.035 v 1.611 c 0,1.123 -1.119,2.035 -2.5,2.035 -1.381,0 -2.5,-0.912 -2.5,-2.035 v -6.741 c 0,-1.124 -1.119,-2.034 -2.5,-2.034 -1.381,0 -2.5,0.91 -2.5,2.034 v 9.06 c 0,1.124 -1.119,2.035 -2.5,2.035 -1.381,0 -2.5,-0.911 -2.5,-2.035 v -7.066 c 0,-1.125 -1.119,-2.035 -2.5,-2.035 -1.381,0 -2.5,0.91 -2.5,2.035 v -6.395 c 0,-1.124 -1.119,-2.035 -2.5,-2.035 -1.381,0 -2.5,0.911 -2.5,2.035 v 2.374 c 0,1.124 -1.121,2.035 -2.502,2.035 -1.375,0 -2.492,-0.905 -2.498,-2.024 v -0.393 c 0,-1.123 -1.121,-2.035 -2.5,-2.035 -1.381,0 -2.5,0.912 -2.5,2.035 v 3.723 c 0,1.125 -1.119,2.035 -2.5,2.035 -1.381,0 -2.5,-0.91 -2.5,-2.035 v -8.852 c 0,-1.125 -1.119,-2.035 -2.5,-2.035 -1.381,0 -2.5,0.91 -2.5,2.035 v 6.232 c 0,1.123 -1.119,2.034 -2.502,2.034 -1.375,0 -2.492,-0.905 -2.498,-2.024 V 8.6256332 c 0,-1.125 -1.119,-2.035 -2.5,-2.035 -1.381,0 -2.5,0.91 -2.5,2.035 v 6.1969998 c 0,1.124 -1.119,2.035 -2.5,2.035 -1.381,0 -2.5,-0.911 -2.5,-2.035 v -2.077 c 0,-1.124 -1.119,-2.035 -2.5,-2.035 -1.381,0 -2.5,0.911 -2.5,2.035 v 9.192 c 0,1.123 -1.119,2.035 -2.5,2.035 -1.381,0 -2.5,-0.912 -2.5,-2.035 v -0.932 c 0,-1.124 -1.119,-2.035 -2.5,-2.035 -1.381,0 -2.5,0.911 -2.5,2.035 v 4.645 c 0,1.123 -1.141,2.035 -2.547,2.035 -1.406,0 -2.546,-0.912 -2.546,-2.035 v -7.85 c -0.292,-0.86 -1.259,-1.493 -2.407,-1.493 -1.381,0 -2.5,0.911 -2.5,2.034 v 1.984 c 0,1.125 -1.12,2.035 -2.5,2.035 -1.381,0 -2.5,-0.91 -2.5,-2.035 v -4.727 c 0,-1.123 -1.12,-2.035 -2.5,-2.035 -1.381,0 -2.5,0.912 -2.5,2.035 v -1.115 l -0.002,-0.01 v 9.973 c 0,1.124 -1.119,2.035 -2.5,2.035 -1.38,0 -2.5,-0.911 -2.5,-2.035 v -6.759 c -0.006,-1.119 -1.123,-2.024 -2.498,-2.024 -1.381,0 -2.5,0.91 -2.5,2.035 v 5.506 c 0,1.123 -1.12,2.035 -2.5,2.035 -1.381,0 -2.5,-0.912 -2.5,-2.035 v -0.736 c 0,-1.125 -1.12,-2.035 -2.502,-2.035 -1.38,0 -2.499,0.91 -2.499,2.035 v 5.49 c 0,1.123 -1.12,2.034 -2.5,2.034 -1.381,0 -2.5,-0.911 -2.5,-2.034 v -0.684 c 0,-1.125 -1.12,-2.035 -2.5,-2.035 -1.381,0 -2.5,0.91 -2.5,2.035 v 4.923 c 0,1.124 -1.119,2.035 -2.5,2.035 -1.38,0 -2.5,-0.911 -2.5,-2.035 v -3.68 c 0,-1.123 -1.119,-2.035 -2.5,-2.035 -1.38,0 -2.5,0.912 -2.5,2.035 v 4.57 c 0,1.125 -1.119,2.035 -2.5,2.035 -1.38,0 -2.5,-0.91 -2.5,-2.035 v -11.191 c 0,-1.125 -1.119003,-2.035 -2.500003,-2.035 -1.38,0 -2.5,0.91 -2.5,2.035 v 0.367 c 0,1.124 -1.119,2.035 -2.5,2.035 -1.38,0 -2.5,-0.911 -2.5,-2.035 v -5.074 c 0,-1.123 -1.119,-2.035 -2.5,-2.035 -1.38,0 -2.5,0.912 -2.5,2.035 v 9.081 c 0,1.124 -1.119,2.035 -2.5,2.035 -1.38,0 -2.5,-0.911 -2.5,-2.035 v -10.099 c 0,-1.123 -1.119,-2.035 -2.5,-2.035 -1.38,0 -2.5,0.912 -2.5,2.035 v 5.182 c 0,1.123 -1.119,2.034 -2.5,2.034 -1.38,0 -2.5,-0.911 -2.5,-2.034 v -2.121 c 0,-1.123 -1.119,-2.035 -2.5,-2.035 -1.38,0 -2.5,0.912 -2.5,2.035 v -6.53 c 0,-1.124 -1.119,-2.035 -2.5,-2.035 -1.381,0 -2.5,0.911 -2.5,2.035 v 7.067 c 0,1.123 -1.12,2.035 -2.5,2.035 -1.381,0 -2.5,-0.912 -2.5,-2.035 v -9.061 c 0,-1.1229998 -1.12,-2.0349998 -2.5,-2.0349998 -1.381,0 -2.5,0.912 -2.5,2.0349998 v 6.742 c 0,1.123 -1.119,2.034 -2.5,2.034 -1.38,0 -2.5,-0.911 -2.5,-2.034 v -1.611 c 0,-1.125 -1.119,-2.035 -2.5,-2.035 -1.38,0 -2.5,0.91 -2.5,2.035 v 8.614 c 0,1.124 -1.12,2.035 -2.5,2.035 -1.377,0 -2.494,-0.906 -2.5,-2.025 v -2.638 c 0,-1.125 -1.119,-2.035 -2.5,-2.035 -1.38,0 -2.5,0.91 -2.5,2.035 v 4.408 c 0,1.125 -1.119,2.035 -2.5,2.035 -1.38,0 -2.5,-0.91 -2.5,-2.035 v -8.529 c 0,-1.124 -1.119,-2.035 -2.5,-2.035 -1.38,0 -2.5,0.911 -2.5,2.035 v 4.505 c -0.002,1.122 -1.121,2.032 -2.5,2.032 -1.38,0 -2.5,-0.911 -2.5,-2.035 V 9.4416332 c -0.002,-1.122 -1.121,-2.031 -2.5,-2.031 -1.38,0 -2.5,0.91 -2.5,2.035 v 7.7069998 c 0,1.125 -1.1190004,2.035 -2.5000004,2.035 -1.381,0 -2.5,-0.91 -2.5,-2.035 v -5.05 c -0.003,-1.121 -1.121,-2.03 -2.5,-2.03 -1.38,0 -2.50000004,0.912 -2.50000004,2.035 v 10.303 c 0,1.123 -1.119,2.035 -2.49999996,2.035 -1.38,0 -2.5,-0.912 -2.5,-2.035 v -7.561 c 0,-1.123 -1.119,-2.035 -2.5,-2.035 -1.38,0 -2.5,0.912 -2.5,2.035 v 1.59 c 0,1.125 -1.1189996,2.035 -2.4999996,2.035 -1.38,0 -2.5,-0.91 -2.5,-2.035 v -3.688 c 0,-1.124 -1.119,-2.035 -2.5,-2.035 -1.38,0 -2.5,0.911 -2.5,2.035 v 4.4 c 0,1.125 -1.119,2.035 -2.5,2.035 -1.38,0 -2.5,-0.91 -2.5,-2.035 V 7.9816332 c 0,-1.125 -1.119,-2.035 -2.5,-2.035 -1.38,0 -2.5,0.91 -2.5,2.035 v 6.0409998 c 0,1.124 -1.119,2.035 -2.5,2.035 -1.381,0 -2.5,-0.911 -2.5,-2.035 V 3.1756332 c 0,-1.124 -1.119,-2.035 -2.5,-2.035 -1.381,0 -2.5,0.911 -2.5,2.035 v -0.226 c 0,1.125 -1.12,2.035 -2.5,2.035 -1.38,0 -2.5,-0.91 -2.5,-2.035 v -1.017 c 0,-1.12400001 -1.12,-2.03500001 -2.5,-2.03500001 -1.38,0 -2.5,0.911 -2.5,2.03500001 v 7.258 c 0,1.1239998 -1.12,2.0339998 -2.5,2.0339998 -1.38,0 -2.5,-0.91 -2.5,-2.0339998 v -0.636 c 0,-1.125 -1.12,-2.035 -2.5,-2.035 -1.38,0 -2.5,0.91 -2.5,2.035 v 8.5979998 c 0,1.125 -1.12,2.035 -2.5,2.035 -1.38,0 -2.5,-0.91 -2.5,-2.035 v -3.893 c 0,-1.123 -1.12,-2.035 -2.5,-2.035 -1.38,0 -2.5,0.912 -2.5,2.035 v 1.688 c 0,1.124 -1.12,2.034 -2.5,2.034 -1.38,0 -2.5,-0.91 -2.5,-2.034 v -0.67 c 0,-1.123 -1.12,-2.035 -2.5,-2.035 -1.38,0 -2.5,0.912 -2.5,2.035 v 11.193 c 0,1.123 -1.12,2.035 -2.5,2.035 -1.38,0 -2.5,-0.912 -2.5,-2.035 v -14.254 c 0,-1.123 -1.12,-2.0349998 -2.5,-2.0349998 -1.38,0 -2.5,0.9119998 -2.5,2.0349998 v 26.456 c 0,1.124 1.12,2.035 2.5,2.035 1.38,0 2.5,-0.911 2.5,-2.035 v -2.12 c 0,-1.123 1.12,-2.035 2.5,-2.035 1.38,0 2.5,0.912 2.5,2.035 v 5.181 c 0,1.124 1.12,2.035 2.5,2.035 1.38,0 2.5,-0.911 2.5,-2.035 v -10.099 c 0,-1.123 1.12,-2.035 2.5,-2.035 1.38,0 2.5,0.912 2.5,2.035 v 9.081 c 0,1.124 1.12,2.035 2.5,2.035 1.38,0 2.5,-0.911 2.5,-2.035 v -5.074 c 0,-1.124 1.12,-2.035 2.5,-2.035 1.38,0 2.5,0.911 2.5,2.035 v 0.368 c 0,1.124 1.12,2.035 2.5,2.035 1.38,0 2.5,-0.911 2.5,-2.035 v -11.193 c 0,-1.123 1.12,-2.034 2.5,-2.034 1.38,0 2.5,0.911 2.5,2.034 v 4.572 c 0,1.123 1.12,2.035 2.5,2.035 1.38,0 2.5,-0.912 2.5,-2.035 v -3.681 c 0,-1.123 1.12,-2.035 2.5,-2.035 1.38,0 2.5,0.912 2.5,2.035 v 4.924 c 0,1.124 1.119,2.035 2.5,2.035 1.381,0 2.5,-0.911 2.5,-2.035 v -0.684 c 0,-1.124 1.119,-2.035 2.5,-2.035 1.381,0 2.5,0.911 2.5,2.035 v 5.49 c 0,1.124 1.119,2.035 2.5,2.035 1.381,0 2.5,-0.911 2.5,-2.035 v -0.736 c 0,-1.123 1.12,-2.035 2.5,-2.035 1.381,0 2.5,0.912 2.5,2.035 v 5.506 c 0,1.124 1.12,2.035 2.5,2.035 1.376,0 2.493,-0.906 2.5,-2.025 v -6.759 c 0,-1.124 1.12,-2.034 2.5,-2.034 1.38,0 2.4999996,0.91 2.4999996,2.034 v 9.964 -1.116 c 0,1.124 1.12,2.035 2.5,2.035 1.381,0 2.5,-0.911 2.5,-2.035 v -4.728 c 0,-1.123 1.12,-2.035 2.5,-2.035 1.38099996,0 2.49999996,0.912 2.49999996,2.035 v 1.985 c 0,1.124 1.12000004,2.034 2.50000004,2.034 1.15,0 2.116,-0.633 2.408,-1.493 v -7.849 c 0,-1.124 1.14,-2.035 2.545,-2.035 1.406,0 2.5460004,0.911 2.5460004,2.035 v 4.645 c 0,1.123 1.12,2.035 2.5,2.035 1.381,0 2.5,-0.912 2.5,-2.035 v -0.932 c 0,-1.124 1.12,-2.035 2.5,-2.035 1.381,0 2.5,0.911 2.5,2.035 v 9.191 c 0,1.125 1.12,2.035 2.5,2.035 1.381,0 2.5,-0.91 2.5,-2.035 v -2.076 c 0,-1.125 1.12,-2.035 2.5,-2.035 1.381,0 2.5,0.91 2.5,2.035 v 6.197 c 0,1.123 1.12,2.035 2.5,2.035 1.381,0 2.5,-0.912 2.5,-2.035 v -12.228 c 0.006,-1.119 1.123,-2.025 2.5,-2.025 1.381,0 2.5,0.912 2.5,2.035 v 6.232 c 0,1.123 1.12,2.035 2.5,2.035 1.381,0 2.5,-0.912 2.5,-2.035 v -8.854 c 0,-1.123 1.12,-2.034 2.5,-2.034 1.381,0 2.5,0.911 2.5,2.034 v 3.724 c 0,1.124 1.119,2.035 2.5,2.035 1.38,0 2.5,-0.911 2.5,-2.035 v -0.392 c 0.006,-1.119 1.123,-2.025 2.5,-2.025 1.38,0 2.5,0.912 2.5,2.035 v 2.375 c 0,1.123 1.119,2.035 2.5,2.035 1.381,0 2.5,-0.912 2.5,-2.035 v 6.53 c 0,1.124 1.12,2.034 2.5,2.034 1.381,0 2.5,-0.91 2.5,-2.034 v -14.252 c 0,-1.124 1.12,-2.035 2.5,-2.035 1.381,0 2.5,0.911 2.5,2.035 v 11.192 c 0,1.124 1.12,2.035 2.5,2.035 1.381,0 2.5,-0.911 2.5,-2.035 v -0.67 c 0,-1.123 1.12,-2.034 2.5,-2.034 1.381,0 2.5,0.911 2.5,2.034 v 1.688 c 0,1.124 1.12,2.035 2.5,2.035 1.381,0 2.5,-0.911 2.5,-2.035 v -3.893 c 0,-1.124 1.12,-2.035 2.5,-2.035 1.381,0 2.5,0.911 2.5,2.035 v 8.599 c 0,1.123 1.12,2.035 2.5,2.035 1.381,0 2.500003,-0.912 2.500003,-2.035 v -0.637 c 0,-1.123 1.12,-2.034 2.5,-2.034 1.381,0 2.5,0.911 2.5,2.034 v 7.258 c 0,1.125 1.12,2.035 2.5,2.035 1.381,0 2.5,-0.91 2.5,-2.035 v -1.018 c 0,-1.123 1.12,-2.035 2.5,-2.035 1.38,0 2.5,0.912 2.5,2.035 v -0.225 c 0,1.123 1.119,2.035 2.5,2.035 1.38,0 2.5,-0.912 2.5,-2.035 v -10.847 c 0,-1.125 1.119,-2.035 2.5,-2.035 1.38,0 2.5,0.91 2.5,2.035 v 6.041 c 0,1.123 1.119,2.035 2.499,2.035 1.382,0 2.502,-0.912 2.502,-2.035 v -9.171 c 0,-1.124 1.119,-2.035 2.5,-2.035 1.38,0 2.5,0.911 2.5,2.035 v 4.401 c 0,1.123 1.119,2.035 2.5,2.035 1.38,0 2.5,-0.912 2.5,-2.035 v -3.688 c 0,-1.124 1.119,-2.035 2.5,-2.035 1.38,0 2.5,0.911 2.5,2.035 v 1.59 c 0,1.124 1.119,2.035 2.5,2.035 1.38,0 2.5,-0.911 2.5,-2.035 v -7.56 c 0,-1.125 1.119,-2.035 2.5,-2.035 1.38,0 2.5,0.91 2.5,2.035 v 10.303 c 0,1.123 1.119,2.035 2.5,2.035 1.378,0 2.496,-0.91 2.498,-2.031 v -5.05 c 0,-1.124 1.12,-2.035 2.501,-2.035 1.381,0 2.501,0.911 2.501,2.035 v 7.708 c 0,1.125 1.119,2.035 2.5,2.035 1.379,0 2.498,-0.91 2.498,-2.033 v -12.764 c 0,-1.124 1.121,-2.034 2.502,-2.034 1.379,0 2.498,0.909 2.5,2.031 v 4.506 c 0,1.123 1.119,2.035 2.5,2.035 1.381,0 2.5,-0.912 2.5,-2.035 v -8.53 c 0,-1.124 1.119,-2.034 2.5,-2.034 1.381,0 2.5,0.91 2.5,2.034 v 4.409 c 0,1.123 1.119,2.035 2.5,2.035 1.381,0 2.5,-0.912 2.5,-2.035 v -2.639 c 0.006,-1.119 1.123,-2.025 2.5,-2.025 1.379,0 2.5,0.912 2.5,2.035 v 8.615 c 0,1.123 1.119,2.035 2.5,2.035 1.381,0 2.5,-0.912 2.5,-2.035 v -1.611 c 0,-1.123 1.119,-2.035 2.5,-2.035 1.381,0 2.5,0.912 2.5,2.035 v 6.74 c 0,1.125 1.119,2.035 2.5,2.035 1.379,0 2.5,-0.91 2.5,-2.035 v -9.059 c 0,-1.124 1.119,-2.035 2.5,-2.035 1.379,0 2.5,0.911 2.5,2.035 v 7.066 c 0,1.124 1.119,2.035 2.5,2.035 1.381,0 2.5,-0.911 2.5,-2.035 v 6.395 c 0,1.123 1.119,2.035 2.5,2.035 1.381,0 2.5,-0.912 2.5,-2.035 v -2.375 c 0,-1.123 1.119,-2.035 2.5,-2.035 1.377,0 2.494,0.906 2.5,2.025 v 0.393 c 0,1.123 1.119,2.035 2.5,2.035 1.381,0 2.5,-0.912 2.5,-2.035 v -3.723 c 0,-1.125 1.119,-2.035 2.5,-2.035 1.381,0 2.5,0.91 2.5,2.035 v 8.852 c 0,1.125 1.119,2.035 2.5,2.035 1.381,0 2.5,-0.91 2.5,-2.035 v -6.232 c 0,-1.123 1.119,-2.034 2.5,-2.034 1.377,0 2.492,0.905 2.5,2.024 v 12.229 c 0,1.125 1.119,2.035 2.5,2.035 1.381,0 2.5,-0.91 2.5,-2.035 v -6.197 c 0,-1.123 1.119,-2.035 2.5,-2.035 1.381,0 2.5,0.912 2.5,2.035 v 2.078 c 0,1.123 1.119,2.033 2.5,2.033 1.381,0 2.5,-0.91 2.5,-2.033 v -9.193 c 0,-1.123 1.119,-2.035 2.5,-2.035 1.381,0 2.5,0.912 2.5,2.035 v 0.932 c 0,1.125 1.119,2.035 2.5,2.035 1.381,0 2.5,-0.91 2.5,-2.035 v -4.645 c 0,-1.123 1.139,-2.035 2.545,-2.035 1.406,0 2.547,0.912 2.547,2.035 v 7.85 c 0.291,0.859 1.258,1.494 2.408,1.494 1.381,0 2.5,-0.912 2.5,-2.035 v -1.984 c 0,-1.125 1.119,-2.035 2.5,-2.035 1.381,0 2.5,0.91 2.5,2.035 v 4.727 c 0,1.123 1.119,2.035 2.5,2.035 1.381,0 2.5,-0.912 2.5,-2.035 v 1.125 -9.973 c 0,-1.124 1.119,-2.035 2.5,-2.035 1.381,0 2.5,0.911 2.5,2.035 v 6.758 c 0.006,1.119 1.123,2.025 2.5,2.025 1.381,0 2.5,-0.91 2.5,-2.035 v -5.506 c 0,-1.123 1.119,-2.035 2.5,-2.035 1.381,0 2.5,0.912 2.5,2.035 v 0.736 c 0,1.125 1.119,2.035 2.5,2.035 1.381,0 2.5,-0.91 2.5,-2.035 v -5.49 c 0,-1.123 1.119,-2.035 2.5,-2.035 1.381,0 2.5,0.912 2.5,2.035 v 0.685 c 0,1.124 1.119,2.034 2.5,2.034 1.381,0 2.5,-0.91 2.5,-2.034 v -2.306 0.006 -2.626 c 0,-1.124 1.119,-2.035 2.5,-2.035 1.381,0 2.5,0.911 2.5,2.035 v 3.681 c 0,1.123 1.119,2.035 2.5,2.035 1.381,0 2.5,-0.912 2.5,-2.035 v -4.57 c 0,-1.125 1.119,-2.035 2.5,-2.035 1.381,0 2.5,0.91 2.5,2.035 v 11.191 c 0,1.125 1.119,2.035 2.5,2.035 1.381,0 2.5,-0.91 2.5,-2.035 v -0.367 c 0,-1.125 1.119,-2.035 2.5,-2.035 1.381,0 2.5,0.91 2.5,2.035 v 5.074 c 0,1.123 1.119,2.035 2.5,2.035 1.381,0 2.5,-0.912 2.5,-2.035 v -9.082 c 0,-1.123 1.119,-2.034 2.5,-2.034 1.381,0 2.5,0.911 2.5,2.034 v 10.1 c 0,1.123 1.119,2.035 2.5,2.035 1.381,0 2.5,-0.912 2.5,-2.035 v -5.182 c 0,-1.123 1.119,-2.034 2.5,-2.034 1.381,0 2.5,0.911 2.5,2.034 v 2.121 c 0,1.123 1.119,2.035 2.5,2.035 1.381,0 2.5,-0.912 2.5,-2.035 v -26.456 c 0.001,-1.124 -1.118,-2.035 -2.499,-2.035 z"
     class="Outlines-zam9bn-0 hStijO"
     id="path4"
     style="display:inline;fill:#81a1c1;fill-opacity:1;stroke-width:2;stroke-dasharray:none" />
  <path
     d="m 146.60113,84.303633 c 0.539,0 1.07,0.085 1.582,0.255 l 0.473,0.155 0.236,-0.338 c 1.354,-1.928 4.043,-3.125 7.015,-3.125 1.108,0 2.188,0.168 3.212,0.5 l 0.668,0.218 0.094,-0.525 c 0.623,-3.47 4.724,-6.088 9.541,-6.088 4.99,0 9.203,2.832 9.59,6.446 l 0.047,0.438 0.593,-0.079 a 9.232,9.232 0 0 1 1.209,-0.083 c 3.569,0 6.502,2.029 6.724,4.611 h -44.775 c 0.266,-1.349 1.866,-2.385 3.791,-2.385 z"
     class="Outlines__Outline-qg192r-0 frkXrL"
     opacity="1"
     id="path13"
     style="fill:#eceff4;fill-opacity:1;stroke:#2e3440;stroke-width:1.7;stroke-dasharray:none;stroke-opacity:1" />
  <path
     d="m 139.49713,118.44463 h 6.821 M 17.408127,99.895633 h 15.652 M -142.65287,119.90263 h 23.059 m 5.764,0 h 5.188 m 464.944,-12.18 h 17.295 m 2.113,0 h 6.725 m -121.278,-16.416997 h 20.813 m 3.936,0 h 7.998 m -414.108,91.221997 h 34.010997 m 6.917,0 h 7.645 m 409.398003,-48.113 h -21.983 m -4.263,0 h -7.494 m 104.73,48.704 h -21.982 m -4.264,0 h -7.494 m -259.438,-64.674 h 19.167"
     class="Outlines-oyuzwi-0 djtMVB"
     stroke-linecap="round"
     stroke-linejoin="round"
     stroke-dasharray="223.32693481445312px 223.32693481445312"
     id="path17"
     style="stroke:#2e3440;stroke-width:1.6;stroke-dasharray:357.323, 357.323;stroke-dashoffset:0;stroke-opacity:1" />
  <path
     d="m 299.94113,171.67763 -4.371,5.989 -6.35,-11.62 -4.77,14.71 -7.93,-16.159 -5.23,6.35 c 0,0 -1.29,-4.71 -2.5,-9.51 l 11.689,-15.41 z m -54.871,-46.99 -5.16,13.43 -11.95,-24.88 -6.88,12.7 -8.059,-19.79 -11.121,31.97 -3.56,-16.12 22.74,-48.849997 z m -52.35,20.97 v 0.01 l -2.72,5.66 -13.399,-13.21 -7.66,7.91 -4.101,-7.11 -15.09,12.41 -2.09,-8.37 21.281,-23.05 20.189,21.87 z m -93.390003,-22.45 -5.09,8.03 -13.07,-16.74 -5.6,15.009 -8.39,-22.67 -12.68,19.21 -3.59,-8.909 -8.21,21.67 -5.07,-20.03 29.55,-50.449997 z m -97.3000004,20.68 -5.25,13.449 -8.8299996,-26.59 -6.72,20.2 -2.99,-13.21 -6.72,19.6 c 0,0 -1.9,-6.449 -4.17,-14.409 v -0.011 l 17.12,-36.77 z"
     class="Peaks-bjxezp-0 kVgGWV"
     opacity="1"
     id="path18"
     style="fill:#402e3f;fill-opacity:1;stroke:#f0eaea;stroke-opacity:1" />
  <g
     class="Fill-j37f2w-0 itxKCd"
     opacity="1"
     id="g23"
     style="display:inline;fill:#88c0d0;fill-opacity:1;stroke:none;stroke-width:1.5;stroke-dasharray:none;stroke-opacity:1"
     transform="translate(-185.51087,-1.1023668)">
    <path
       d="m 508.831,203.58 c -13.6,-0.87 -28.029,-1.601 -43.01,-2.08 l -15.619,-33.561 4.1,-5.399 c 1.21,4.8 2.5,9.51 2.5,9.51 l 5.23,-6.35 7.93,16.159 4.77,-14.71 6.35,11.62 4.371,-5.989 z"
       id="path19"
       style="fill:#88c0d0;fill-opacity:1;stroke:none;stroke-width:1.5;stroke-dasharray:none;stroke-opacity:1" />
    <path
       d="m 465.821,201.5 a 1179,1179 0 0 0 -37.619,-0.61 l -1.65,-1.78 -43.76,-47.399 v -0.01 l -4.561,-4.931 -3.59,-3.89 9.21,-19.78 3.56,16.12 11.121,-31.97 8.06,19.79 6.88,-12.7 11.95,24.88 5.159,-13.43 19.621,42.149 z"
       id="path20"
       style="fill:#88c0d0;fill-opacity:1;stroke:none;stroke-width:1.5;stroke-dasharray:none;stroke-opacity:1" />
    <path
       d="m 428.202,200.89 c -1,0 -2.01,0 -3.01,0.01 a 985.43,985.43 0 0 0 -30.131,0.521 c -15.85,0.52 -32.16,1.42 -48.85,2.54 -4.68,0.31 -9.4,0.64 -14.141,0.979 l -21.379,-36.52 22.48,-24.36 2.09,8.37 15.09,-12.41 4.101,7.11 7.66,-7.91 13.399,13.21 2.72,-5.66 48.32,52.34 z"
       id="path21"
       style="fill:#88c0d0;fill-opacity:1;stroke:none;stroke-width:1.5;stroke-dasharray:none;stroke-opacity:1" />
    <path
       d="m 332.071,204.939 c -17.25,1.261 -34.87,2.7 -52.82,4.181 -1.84,-0.21 -3.7,-0.42 -5.56,-0.62 -18.87,-2.09 -38.66,-3.91 -59.07,-5.351 l -17.83,-38.29 v -0.01 l 26.35,-44.97 5.07,20.03 8.21,-21.67 3.59,8.909 12.68,-19.21 8.39,22.67 5.6,-15.01 13.07,16.74 5.09,-8.03 z"
       id="path22"
       style="fill:#88c0d0;fill-opacity:1;stroke:none;stroke-width:1.5;stroke-dasharray:none;stroke-opacity:1" />
    <path
       d="m 214.621,203.149 c -12.78,-0.899 -25.8,-1.64 -38.97,-2.21 -16.05,-0.689 -32.34,-1.12 -48.71,-1.22 l 25.92,-55.689 c 2.27,7.96 4.17,14.409 4.17,14.409 l 6.72,-19.6 2.99,13.21 6.72,-20.2 8.83,26.59 5.25,-13.449 9.25,19.859 v 0.01 z"
       id="path23"
       style="fill:#88c0d0;fill-opacity:1;stroke:none;stroke-width:1.5;stroke-dasharray:none;stroke-opacity:1" />
  </g>
  <g
     class="Outlines__Group-sc-1rlirdb-0 gTeYDG"
     id="g42"
     style="display:inline;fill:#eceff4;fill-opacity:1;stroke:#2e3440;stroke-width:2;stroke-dasharray:none;stroke-opacity:1"
     transform="translate(-185.51087,-1.1023668)">
    <path
       d="m 430.581,125.79 -5.159,13.43 -11.95,-24.88 -6.88,12.7 -8.06,-19.79 -11.121,31.97 -3.56,-16.12 22.74,-48.85 z"
       stroke-linecap="round"
       stroke-linejoin="round"
       stroke-dasharray="238.891px, 238.891"
       id="path31"
       style="fill:#eceff4;fill-opacity:1;stroke:#2e3440;stroke-width:2;stroke-dasharray:none;stroke-opacity:1" />
    <path
       d="m 374.642,142.88 9.209,-19.78"
       stroke-linecap="round"
       stroke-linejoin="round"
       stroke-dasharray="21.8187px, 21.8187"
       id="path32"
       style="fill:#eceff4;fill-opacity:1;stroke:#2e3440;stroke-width:2;stroke-dasharray:none;stroke-opacity:1" />
    <path
       d="m 378.231,146.76 v 0.01 l -2.72,5.66 -13.399,-13.21 -7.66,7.91 -4.101,-7.11 -15.09,12.41 -2.09,-8.37 21.28,-23.05 20.189,21.87 z"
       stroke-linecap="round"
       stroke-linejoin="round"
       stroke-dasharray="138.911px, 138.911"
       id="path34"
       style="fill:#eceff4;fill-opacity:1;stroke:#2e3440;stroke-width:2;stroke-dasharray:none;stroke-opacity:1" />
    <path
       d="m 428.202,200.89 -1.65,-1.78 -48.321,-52.34"
       stroke-linecap="round"
       stroke-linejoin="round"
       stroke-dasharray="73.6619px, 73.6619"
       id="path35"
       style="fill:#eceff4;fill-opacity:1;stroke:#2e3440;stroke-width:2;stroke-dasharray:none;stroke-opacity:1" />
    <path
       d="m 333.171,144.06 -22.49,24.37"
       stroke-linecap="round"
       stroke-linejoin="round"
       stroke-dasharray="33.1617px, 33.1617"
       id="path36"
       style="fill:#eceff4;fill-opacity:1;stroke:#2e3440;stroke-width:2;stroke-dasharray:none;stroke-opacity:1" />
    <path
       d="m 223.141,119.88 -26.35,44.979"
       stroke-linecap="round"
       stroke-linejoin="round"
       stroke-dasharray="52.129px, 52.129"
       id="path37"
       style="display:inline;fill:#eceff4;fill-opacity:1;stroke:#2e3440;stroke-width:2;stroke-dasharray:none;stroke-opacity:1" />
    <path
       d="m 284.841,124.31 25.84,44.12 21.39,36.51"
       stroke-linecap="round"
       stroke-linejoin="round"
       stroke-dasharray="93.4445px, 93.4445"
       id="path38"
       style="fill:#eceff4;fill-opacity:1;stroke:#2e3440;stroke-width:2;stroke-dasharray:none;stroke-opacity:1" />
    <path
       d="m 252.691,69.43 -29.55,50.45 5.07,20.03 8.21,-21.67 3.59,8.909 12.68,-19.21 8.39,22.67 5.6,-15.01 13.07,16.74 5.09,-8.03 z"
       stroke-linecap="round"
       stroke-linejoin="round"
       stroke-dasharray="269.466px, 269.466"
       id="path39"
       style="display:inline;fill:#eceff4;fill-opacity:1;stroke:#2e3440;stroke-width:2;stroke-dasharray:none;stroke-opacity:1" />
  </g>
  <g
     class="Shades__Fill-sc-1fw2xoy-0 GmSMi"
     opacity="1"
     id="g27"
     style="display:inline;fill:#1c333a;fill-opacity:0.125778;stroke:none;stroke-width:2;stroke-dasharray:none;stroke-opacity:1"
     transform="translate(-185.51087,-1.1023668)">
    <path
       d="m 435.02,171.533 v 5.834 m -33.654,-36.346 v 13.73 m 0,3.464 v 5.831 m 16.97,5.68 v 13.728 m -37.031,-6.242 v 5.836 m 8.074,-20.264 v 8.748 m -32.464,-9.779 v 13.728 m 1.076,13.736 v 5.831 m -19.596,-19.976 v 13.729 m -17.477,-17.038 v 3.621 m -55.664,10.424 v 12.65 m -30.712,-30.427 v 12.653 m -19.921,-12.653 v 16.729 m 41.626,-40.032 v 6.601 m 0,3.937 v 3.301 m 35.724,20.359 v 5.834 m -43.008,-48.219 v 8.187 m 26.053,-1.099 v 13.206 m -9.762,20.06 v 5.832 m -30.712,-27.45 v 5.833 m -61.926,4.155 v 13.575 m 6.047,-0.712 v 7.353 m -18.156,-5.148 v 3.788 m 27.568,7.8 v 7.352 M 160.507,189.06 v 7.575 m 315.796,-9.277 v 8.748"
       class="Shades__Shade-sc-1fw2xoy-1 Shades__ShadeLine-sc-1fw2xoy-2 dZFFUE"
       id="path24"
       style="display:inline;fill:#1c333a;fill-opacity:0.125778;stroke:#2e3440;stroke-width:2;stroke-dasharray:none;stroke-opacity:0.290067" />
    <path
       d="m 406.588,74.245 18.836,64.98 -11.953,-24.887 -6.885,12.697 -8.054,-19.783 -11.117,31.973 -3.567,-16.129 -6.336,13.622 9.903,12.533 10.529,-23.45 9.271,10.232 6.815,-6.691 11.394,23.085 4.705,-10.806 21.237,59.269 14.455,0.61 z"
       class="Shades__Shade-sc-1fw2xoy-1 foivMo"
       id="path26"
       style="display:inline;fill:#1c333a;fill-opacity:0.125778;stroke:none;stroke-width:2;stroke-dasharray:none;stroke-opacity:1" />
    <path
       d="m 354.456,121.005 28.331,30.699 -3.754,10.18 -16.921,-14.749 -7.658,9.475 -6.536,-6.49 -14.746,12.117 -4.433,-13.373 4.433,-4.802 2.092,8.365 15.084,-12.408 4.106,7.116 7.392,-7.454 z m -22.385,83.934 -79.506,-135.841 27.439,62.311 -0.378,0.597 -13.073,-16.737 -5.603,15.003 -8.386,-22.667 -12.679,19.207 -3.588,-8.912 -8.216,21.679 -5.069,-20.03 -5.904,10.078 10.225,23.153 9.91,-17.579 2.899,5.547 9.602,-15.608 10.458,17.535 11.61,-11.249 47.679,73.513 z m -143.528,-57.804 -18.562,-39.883 14.293,48.137 -1.776,3.433 -8.824,-26.593 -6.723,20.198 -2.988,-13.202 -6.723,19.597 -4.31,-14.934 -3.977,8.539 8.287,16.161 5.976,-10.107 3.735,6.017 6.723,-12.071 8.824,13.274 3.535,-4.391 15.583,41.839 h 13.005 l -22.815,-49.005 z"
       class="Shades__Shade-sc-1fw2xoy-1 foivMo"
       id="path27"
       style="display:inline;fill:#1c333a;fill-opacity:0.125778;stroke:none;stroke-width:2;stroke-dasharray:none;stroke-opacity:1" />
  </g>
  <g
     id="g1"
     transform="matrix(0.38907563,0,0,0.38907563,22.660687,4.7671164)"
     style="stroke-width:0.182055">
    <g
       id="g2"
       style="stroke:none;stroke-width:0.182055">
      <path
         d="m 400,80 -80,80 H 160 v 60 h 80 v 80 h -80 v 100 l -80,80 h 81.0076 c 6.0652,0 11.4378,-3.9054 13.3118,-9.6738 l 14.4798,-44.5656 c 1.384,-4.2618 4.7298,-7.5966 8.9916,-8.9814 l 11.1312,-3.6172 c 4.262,-1.386 8.9314,-0.65 12.5572,1.984 l 37.8994,27.5434 c 4.9066,3.5646 11.5574,3.5646 16.464,0 l 33.972,-24.691 c 4.9072,-3.5648 6.9592,-9.8788 5.085,-15.6474 l -14.4798,-44.5658 c -1.386,-4.262 -0.64,-8.9314 1.994,-12.5572 l 6.8834,-9.4672 c 2.6338,-3.6254 6.8358,-5.777 11.317,-5.7774 l 46.86,0.0102 c 6.0656,2e-4 11.4378,-3.9154 13.3118,-9.684 l 12.9812,-39.9354 c 1.874,-5.7684 -0.18,-12.093 -5.085,-15.658 L 350.7724,237.173 c -3.6256,-2.6342 -5.767,-6.8356 -5.767,-11.3172 V 214.146 c 4e-4,-4.4814 2.1412,-8.6936 5.767,-11.3274 l 43.4598,-31.5742 C 397.8584,168.6106 400,164.3988 400,159.9174 Z"
         style="display:inline;fill:#5e81ac;fill-opacity:1;fill-rule:evenodd;stroke:none;stroke-width:0.481657;stroke-linecap:square"
         id="path8-4-4" />
      <path
         id="path7-7-2"
         style="display:inline;fill:#b48ead;fill-opacity:1;fill-rule:evenodd;stroke:none;stroke-width:0.481657;stroke-linecap:square"
         d="m 320,0 -80,80 h 80 v 80 L 400,80 V 0 Z M 80,320 0,400 v 80 h 80 l 80,-80 H 80 Z" />
      <path
         d="M 80,0 0,80 V 400 L 80,320 V 80 H 240 L 320,0 Z"
         style="fill:#bf616a;fill-opacity:1;fill-rule:evenodd;stroke:none;stroke-width:0.481657;stroke-linecap:square"
         id="path3-1-7" />
      <path
         d="m 80,400 h 80 V 300 h 80 V 220 H 160 V 160 H 320 V 80 H 80 Z"
         style="display:none;fill:#ffffff;fill-opacity:1;fill-rule:evenodd;stroke:none;stroke-width:0.481657;stroke-linecap:square"
         id="path9-4-0" />
    </g>
  </g>
</svg>
